<svg width="32" height="33" viewBox="0 0 32 33" fill="none" xmlns="http://www.w3.org/2000/svg">
<rect x="0.5" y="1.4473" width="31" height="31" rx="7.5" fill="#FDF2F8"/>
<rect x="0.5" y="1.4473" width="31" height="31" rx="7.5" stroke="#F9A8D4"/>
<g clip-path="url(#clip0_4682_118547)">
<path d="M25.2541 10.9858H18.8478C18.2607 10.9858 17.7408 11.2773 17.4242 11.7229C17.1075 11.2773 16.5876 10.9858 16.0005 10.9858H12.4529L8.77876 7.31167C8.77871 7.31163 8.77867 7.31159 8.77863 7.31154C8.77859 7.3115 8.77854 7.31146 8.77846 7.31141L7.77196 6.30491C7.57666 6.10958 7.31696 6.00198 7.04076 6.00198C6.76455 6.00198 6.50485 6.10958 6.30956 6.30487L5.30293 7.31154C5.10759 7.50684 5 7.7665 5 8.0427C5 8.31894 5.10759 8.57865 5.30289 8.77394L6.30934 9.78044C6.30939 9.78048 6.30943 9.78057 6.30952 9.78061C6.30956 9.78066 6.30964 9.7807 6.30969 9.78078L8.20465 11.6757C7.97576 11.9772 7.84836 12.3475 7.84836 12.7317V18.4936C7.84836 18.6716 7.99264 18.8159 8.17062 18.8159C8.3486 18.8159 8.49289 18.6716 8.49289 18.4936V12.7317C8.49289 12.5193 8.55463 12.3137 8.667 12.138L11.8335 15.3046C11.8412 15.3122 11.8492 15.3194 11.8575 15.3262C11.9066 15.3662 11.967 15.391 12.0299 15.3974C12.0404 15.3984 12.0509 15.3989 12.0614 15.3989H13.9412L14.3502 15.8079C14.4131 15.8708 14.4956 15.9023 14.578 15.9023C14.5857 15.9023 15.2887 15.9012 15.2887 15.9012C15.4667 15.9012 15.611 15.757 15.611 15.5789C15.611 15.4009 15.4667 15.2567 15.2887 15.2567H14.7105L14.397 14.9432V13.0635C14.397 13.0529 14.3965 13.0424 14.3955 13.0319C14.3891 12.969 14.3643 12.9084 14.3242 12.8594C14.3174 12.8511 14.3103 12.8432 14.3026 12.8355L13.0975 11.6304H16.0006C16.6078 11.6304 17.1019 12.1244 17.1019 12.7317V24.9027C16.8013 24.6576 16.4178 24.5103 16.0006 24.5103H8.49289V19.7826C8.49289 19.6046 8.3486 19.4604 8.17062 19.4604C7.99264 19.4604 7.84836 19.6046 7.84836 19.7826V26.2561C7.84836 27.2188 8.63159 28.002 9.59426 28.002H22.1551C22.3331 28.002 22.4773 27.8577 22.4773 27.6797C22.4773 27.5017 22.3331 27.3575 22.1551 27.3575H17.7465L17.7465 26.5783H23.8305C24.0086 26.5783 24.1528 26.4341 24.1528 26.2561C24.1528 26.0781 24.0086 25.9338 23.8305 25.9338H17.7947C17.9329 25.4833 18.3527 25.1547 18.8478 25.1547H26.3555V26.2561C26.3555 26.8634 25.8614 27.3575 25.2541 27.3575H23.4441C23.2661 27.3575 23.1219 27.5017 23.1219 27.6797C23.1219 27.8577 23.2661 28.002 23.4441 28.002H25.2541C26.2168 28.002 27 27.2188 27 26.2561V12.7317C27 11.769 26.2168 10.9858 25.2541 10.9858ZM5.75861 8.31813C5.68505 8.24457 5.64453 8.14677 5.64453 8.0427C5.64453 7.93867 5.68505 7.84087 5.75866 7.76731L6.76533 6.7606C6.83885 6.68703 6.93669 6.64651 7.04076 6.64651C7.14479 6.64651 7.24262 6.68703 7.31623 6.76064L8.09495 7.53941L7.3164 8.31796C7.31632 8.31804 7.31627 8.31809 7.31619 8.31817C7.3161 8.31826 7.31606 8.3183 7.31597 8.31839L6.53742 9.09694L5.75861 8.31813ZM12.0614 14.621L6.99319 9.55271L7.54409 9.0018L12.6123 14.0701L12.0614 14.621ZM13.7524 14.7544H12.8394L13.7524 13.8414V14.7544ZM13.619 13.0634L13.0681 13.6143L7.99986 8.54603L8.55077 7.99518L12.0911 11.5355L12.092 11.5364L13.619 13.0634ZM17.1019 27.3575H9.59426C8.98698 27.3575 8.49289 26.8634 8.49289 26.2561V25.1547H16.0006C16.4957 25.1547 16.9155 25.4833 17.0537 25.9338H11.0179C10.8399 25.9338 10.6956 26.0781 10.6956 26.2561C10.6956 26.4341 10.8399 26.5783 11.0179 26.5783H17.1019L17.1019 27.3575ZM26.3555 24.5102H18.8478C18.4305 24.5102 18.0471 24.6576 17.7464 24.9027L17.7465 12.7316C17.7465 12.1243 18.2405 11.6303 18.8478 11.6303H25.2541C25.8614 11.6303 26.3555 12.1244 26.3555 12.7317V24.5102Z" fill="#BE185D"/>
<path d="M20.9844 13.765H23.1198C23.2978 13.765 23.4421 13.6208 23.4421 13.4427C23.4421 13.2647 23.2978 13.1205 23.1198 13.1205H20.9844C20.8064 13.1205 20.6621 13.2647 20.6621 13.4427C20.6621 13.6207 20.8064 13.765 20.9844 13.765Z" fill="#BE185D"/>
<path d="M24.542 15.2582H19.5593C19.3812 15.2582 19.237 15.4024 19.237 15.5804C19.237 15.7585 19.3812 15.9027 19.5593 15.9027H24.542C24.72 15.9027 24.8642 15.7585 24.8642 15.5804C24.8642 15.4024 24.7199 15.2582 24.542 15.2582Z" fill="#BE185D"/>
<path d="M24.542 16.6797H19.5593C19.3812 16.6797 19.237 16.824 19.237 17.002C19.237 17.18 19.3812 17.3242 19.5593 17.3242H24.542C24.72 17.3242 24.8642 17.18 24.8642 17.002C24.8642 16.824 24.7199 16.6797 24.542 16.6797Z" fill="#BE185D"/>
<path d="M24.542 18.1049H19.5593C19.3812 18.1049 19.237 18.2491 19.237 18.4271C19.237 18.6051 19.3812 18.7494 19.5593 18.7494H24.542C24.72 18.7494 24.8642 18.6051 24.8642 18.4271C24.8642 18.2491 24.7199 18.1049 24.542 18.1049Z" fill="#BE185D"/>
<path d="M24.542 19.5264H19.5593C19.3812 19.5264 19.237 19.6706 19.237 19.8487C19.237 20.0267 19.3812 20.1709 19.5593 20.1709H24.542C24.72 20.1709 24.8642 20.0267 24.8642 19.8487C24.8642 19.6707 24.7199 19.5264 24.542 19.5264Z" fill="#BE185D"/>
<path d="M24.5427 20.9515H20.2718C20.0938 20.9515 19.9495 21.0958 19.9495 21.2738C19.9495 21.4518 20.0938 21.5961 20.2718 21.5961H24.5427C24.7207 21.5961 24.8649 21.4518 24.8649 21.2738C24.8649 21.0958 24.7206 20.9515 24.5427 20.9515Z" fill="#BE185D"/>
</g>
<defs>
<clipPath id="clip0_4682_118547">
<rect width="22" height="22" fill="white" transform="translate(5 6.00198)"/>
</clipPath>
</defs>
</svg>
